<svg xmlns="http://www.w3.org/2000/svg" viewBox="0 0 200 200">
  <path d="M10.16 92.52a90.16 90.16 0 01179.66 0H200a100.3 100.3 0 00-200 0zm179.68 15a90.16 90.16 0 01-179.66 0H0a100.3 100.3 0 00200 0z" fill="#42badb"/>
  <ellipse cx="100.01" cy="100" rx="83.77" ry="83.54" fill="#05718b"/>
  <ellipse cx="100.01" cy="100" rx="60.01" ry="59.85" fill="#fff"/>
  <path d="M37.37 92.64h125.27v14.72H37.37z" fill="#05718b"/>
  <path d="M104.83 125.32A27.13 27.13 0 00127 114.64l11.78 12.09q-14 15.75-33 15.74t-31.33-12q-12.31-12-12.32-30.25T74.6 69.75q12.56-12.21 30.68-12.22 20.25 0 33.92 15.39l-11.43 12.92Q119.1 75 106.13 75.05a25.34 25.34 0 00-17.73 6.76Q81 88.56 81 100t7 18.39a22.91 22.91 0 0016.83 6.93z" fill="#05718b"/>
</svg>