<svg id="Layer_1" data-name="Layer 1" xmlns="http://www.w3.org/2000/svg" width="1136" height="480">
  <defs>
    <style>
      .cls-1{opacity:.08}.cls-2{fill:#005385}.cls-3{fill:#cce2f0}.cls-4{fill:#9ac5e0}.cls-5{fill:#0a3859}.cls-6{fill:#348bc2}.cls-7{fill:#0464a9}.cls-8{fill:none}.cls-9{fill:#fff}
    </style>
  </defs>
  <g class="cls-1">
    <circle class="cls-2" cx="1100.46" cy="341.17" r="45.98"/>
    <path class="cls-3" d="M1103 311.31a22.76 22.76 0 0 0-4.25-2 22.46 22.46 0 0 1 1.72 2.8 28.73 28.73 0 0 1 1.36 3.05c.21.55.36 1.12.54 1.68l3-3.92a24.68 24.68 0 0 0-2.37-1.61z"/>
    <path class="cls-4" d="M1099.82 320.2l-1 1.36h1.36a5.74 5.74 0 0 1-.36-1.36zM1083.45 347.18a30.73 30.73 0 0 0 1.33 3 14.83 14.83 0 0 0 1.7 2.63 8.77 8.77 0 0 0 2.07 1.88 4.45 4.45 0 0 0 4.83 0 8.77 8.77 0 0 0 2.07-1.88 14.84 14.84 0 0 0 1.7-2.63 30.71 30.71 0 0 0 1.33-3q.58-1.51 1-2.91a23.46 23.46 0 0 0 .61-2.43h-16.87l-1 1.36c.09.34.18.69.29 1.07a15.54 15.54 0 0 0 .94 2.91zM1101 335.09q.12-1.68.12-3.39t-.12-3.39q-.12-1.68-.33-3.37h-4.52l-10.33 13.52h14.86q.2-1.69.32-3.37z"/>
    <path class="cls-3" d="M1079.14 345q-.42-1.61-.74-3.2h-8.8a22.57 22.57 0 0 0 2.43 4 24 24 0 0 0 3.17 3.45c.45.41.93.78 1.42 1.15l3-3.92c-.15-.48-.34-.93-.48-1.48zM1081.82 341.84c.08.4.19.87.32 1.36l1-1.36h-1.32z"/>
    <path class="cls-4" d="M1083.24 354.07a22.44 22.44 0 0 1-1.72-2.8 28.72 28.72 0 0 1-1.36-3c-.21-.55-.36-1.12-.54-1.68l-3 3.92a24.65 24.65 0 0 0 2.36 1.62 22.74 22.74 0 0 0 4.26 1.94z"/>
    <path class="cls-3" d="M1099.48 319.13q-.4-1.4-1-2.91a30.71 30.71 0 0 0-1.33-3 14.84 14.84 0 0 0-1.7-2.63 8.77 8.77 0 0 0-2.07-1.88 4.45 4.45 0 0 0-4.83 0 8.77 8.77 0 0 0-2.07 1.88 14.84 14.84 0 0 0-1.7 2.63 30.73 30.73 0 0 0-1.33 3q-.58 1.51-1 2.91a23.44 23.44 0 0 0-.61 2.43h16.87l1-1.36a5.74 5.74 0 0 0-.23-1.07zM1081.28 324.94q-.21 1.69-.33 3.37t-.13 3.41q0 1.72.12 3.39t.33 3.37h4.55l10.34-13.48h-14.86z"/>
    <path class="cls-4" d="M1103.55 321.56h8.8a22.57 22.57 0 0 0-2.43-4 24.07 24.07 0 0 0-3.17-3.45c-.45-.41-.93-.78-1.42-1.15l-3 3.92c.16.5.35 1 .48 1.51q.42 1.61.74 3.17z"/>
    <path class="cls-3" d="M1071.82 350.84a26.86 26.86 0 0 1-4.23-5.48 27.12 27.12 0 0 1 0-27.31 27 27 0 0 1 9.71-9.71 27.11 27.11 0 0 1 27.31 0 26.91 26.91 0 0 1 2.78 1.87l11.47-15a45.94 45.94 0 1 0-55.8 73l11.47-15a27 27 0 0 1-2.71-2.37z"/>
    <path class="cls-3" d="M1075.21 314.08a24.07 24.07 0 0 0-3.17 3.45 22.57 22.57 0 0 0-2.43 4h8.8q.32-1.58.74-3.2a31.85 31.85 0 0 1 1-3.18 28.76 28.76 0 0 1 1.36-3.05 22.46 22.46 0 0 1 1.72-2.8 22.76 22.76 0 0 0-4.25 2 24.53 24.53 0 0 0-3.77 2.78z"/>
    <path class="cls-4" d="M1118.88 295.21l-11.47 15a26.76 26.76 0 0 1 6.93 7.84 27.12 27.12 0 0 1 0 27.31 27 27 0 0 1-9.71 9.71 27.11 27.11 0 0 1-27.31 0 26.9 26.9 0 0 1-2.78-1.87l-11.47 15a45.94 45.94 0 1 0 55.81-72.99z"/>
    <path class="cls-3" d="M1077.88 324.94h-9.59a23.88 23.88 0 0 0 0 13.52h9.59q-.21-1.69-.32-3.37t-.11-3.39q0-1.72.11-3.39t.32-3.37z"/>
    <path class="cls-4" d="M1104.4 328.31q.11 1.68.11 3.39t-.11 3.39q-.11 1.68-.32 3.37h9.59a23.88 23.88 0 0 0 0-13.52h-9.59q.21 1.69.32 3.37zM1102.82 345a31.8 31.8 0 0 1-1 3.18 28.72 28.72 0 0 1-1.36 3 22.44 22.44 0 0 1-1.72 2.8 22.74 22.74 0 0 0 4.25-2 24.51 24.51 0 0 0 3.78-2.77 24 24 0 0 0 3.17-3.45 22.57 22.57 0 0 0 2.43-4h-8.8q-.34 1.67-.75 3.24z"/>
    <path class="cls-5" d="M1106.75 314.08a24.07 24.07 0 0 1 3.17 3.45 22.57 22.57 0 0 1 2.43 4h-8.8q-.32-1.58-.74-3.2c-.13-.51-.32-1-.48-1.51l-2.56 3.35c.13.49.24 1 .32 1.36h-1.36l-2.59 3.38h4.52q.21 1.69.33 3.37t.12 3.39q0 1.72-.12 3.39t-.33 3.37h-14.84l-2.59 3.38h16.87q-.21 1-.61 2.43a27.43 27.43 0 0 1-1 2.91 30.71 30.71 0 0 1-1.33 3 14.84 14.84 0 0 1-1.7 2.63 8.77 8.77 0 0 1-2.07 1.88 4.45 4.45 0 0 1-4.83 0 8.77 8.77 0 0 1-2.07-1.88 14.83 14.83 0 0 1-1.7-2.63 30.73 30.73 0 0 1-1.33-3q-.58-1.51-1-2.91c-.11-.38-.2-.73-.29-1.07l-2.56 3.35c.18.56.33 1.12.54 1.68a28.72 28.72 0 0 0 1.36 3 22.44 22.44 0 0 0 1.72 2.8 22.74 22.74 0 0 1-4.25-2 24.65 24.65 0 0 1-2.36-1.62l-2.08 2.73a26.9 26.9 0 0 0 2.78 1.87 27.11 27.11 0 0 0 27.31 0 27 27 0 0 0 9.71-9.71 27.12 27.12 0 0 0 0-27.31 26.76 26.76 0 0 0-6.93-7.84l-2.08 2.73c.49.45.96.87 1.42 1.23zm3.17 31.79a24 24 0 0 1-3.17 3.45 24.51 24.51 0 0 1-3.78 2.77 22.74 22.74 0 0 1-4.25 2 22.44 22.44 0 0 0 1.72-2.8 28.72 28.72 0 0 0 1.36-3 31.8 31.8 0 0 0 1-3.18q.42-1.61.74-3.2h8.8a22.57 22.57 0 0 1-2.42 4zm4.73-14.17a23.34 23.34 0 0 1-1 6.76h-9.59q.21-1.69.32-3.37t.11-3.39q0-1.72-.11-3.39t-.32-3.37h9.59a23.35 23.35 0 0 1 1 6.78z"/>
    <path class="cls-2" d="M1098.16 305.62a27.08 27.08 0 0 0-20.84 2.72 27 27 0 0 0-9.71 9.71 27.09 27.09 0 0 0 0 27.31 26.76 26.76 0 0 0 6.93 7.84l2.08-2.73a16.18 16.18 0 0 1-1.42-1.15 24 24 0 0 1-3.17-3.45 22.57 22.57 0 0 1-2.43-4h8.8q.32 1.58.74 3.2c.13.51.32 1 .48 1.51l2.56-3.35c-.13-.49-.24-1-.32-1.36h1.36l2.59-3.38h-4.52q-.21-1.69-.33-3.37t-.14-3.4q0-1.72.12-3.39t.33-3.37h14.86l2.59-3.38h-16.9q.21-1 .61-2.43a27.39 27.39 0 0 1 1-2.91 30.73 30.73 0 0 1 1.33-3 14.84 14.84 0 0 1 1.7-2.63 8.77 8.77 0 0 1 2.07-1.88 4.45 4.45 0 0 1 4.83 0 8.77 8.77 0 0 1 2.07 1.88 14.84 14.84 0 0 1 1.7 2.63 30.71 30.71 0 0 1 1.33 3q.58 1.51 1 2.91c.11.38.2.73.29 1.07l2.56-3.35c-.18-.56-.33-1.12-.54-1.68a28.73 28.73 0 0 0-1.36-3.05 22.46 22.46 0 0 0-1.72-2.8 22.76 22.76 0 0 1 4.25 2 24.67 24.67 0 0 1 2.36 1.62l2.08-2.73a26.91 26.91 0 0 0-2.78-1.87 27.36 27.36 0 0 0-6.44-2.74zm-20.6 29.48q.11 1.68.32 3.37h-9.59a23.88 23.88 0 0 1 0-13.52h9.59q-.21 1.69-.32 3.37t-.11 3.39q0 1.71.11 3.38zm4-23a28.76 28.76 0 0 0-1.36 3.05 31.85 31.85 0 0 0-1 3.18q-.42 1.61-.74 3.2h-8.8a22.57 22.57 0 0 1 2.43-4 24.07 24.07 0 0 1 3.17-3.45 24.53 24.53 0 0 1 3.78-2.77 22.76 22.76 0 0 1 4.25-2 22.46 22.46 0 0 0-1.77 2.82z"/>
  </g>
  <g class="cls-1">
    <path class="cls-2" d="M-134.53 313.2h376.88v202.06h-376.88z"/>
    <path class="cls-4" d="M232.88 303.72H106l-24 31.44h125.39V352H69l-12.7 16.62h151.09v16.84h-164l-12.92 16.9h176.92v16.84H17.64l-66.2 86.58h281.44V303.72zM207.39 482.4H100v-35.79h107.39v35.79z"/>
    <path class="cls-3" d="M1.72 419.2v-16.84h28.8l12.92-16.9H1.72v-16.84h54.6L69 352H1.72v-16.83H81.9l24-31.44H-144v202.06h95.44l66.2-86.58H1.72zm-72.86 7.8a50 50 0 0 1-49.95-50 50 50 0 0 1 49.91-49.94 50 50 0 0 1 50 49.95 50 50 0 0 1-50 49.94z"/>
    <path class="cls-6" d="M1.73 385.47h41.72l12.87-16.85H1.73v16.85z"/>
    <path class="cls-7" d="M207.39 385.47v-16.85H56.32l-12.87 16.85h163.94z"/>
    <path class="cls-6" d="M1.73 419.21h15.92l12.88-16.85H1.73v16.85z"/>
    <path class="cls-7" d="M207.39 419.21v-16.85H30.53l-12.88 16.85h189.74zM207.39 352.01v-16.84H81.91l-12.88 16.84h138.36z"/>
    <path class="cls-6" d="M1.73 352.01h67.3l12.88-16.84H1.73v16.84z"/>
    <path class="cls-5" d="M100 482.4h107.39v-35.79H100v35.79zm26.82-22.4h53.69v9h-53.69v-9z"/>
    <path class="cls-3" d="M126.86 460h53.69v9.01h-53.69z"/>
  </g>
  <g class="cls-1">
    <path class="cls-2" d="M389.92 7.47h-49L274.07 191h44.8l12.95-40.84h65.28L410.16 191h45.06L422 97.72zm-49.28 111l20-62.21a70.14 70.14 0 0 0 3.2-16h1a80.24 80.24 0 0 0 3.06 16.46l19.71 61.7h-47zM520.59 56.72a121.46 121.46 0 0 0-26.69 3.33q-14.66 3.36-23.08 7.67v30.5q21.12-14 44.55-14t23.3 21.51l-35.59 4.74q-45.26 5.93-45.26 44.07 0 18 10.94 28.86t30 10.82q25.85 0 39-22h.51V191h38.27v-78.28q.11-56-55.95-56zm18 81q0 12-7.17 19.9t-18.56 7.87q-8.19 0-13-4.42a14.7 14.7 0 0 1-4.8-11.33q0-15.23 19.71-17.79l23.81-3.07v8.83z"/>
    <g>
      <path class="cls-8" d="M485.64 140.33a14.7 14.7 0 0 0 4.8 11.33q4.8 4.42 13 4.42 11.39 0 18.56-7.87t7.17-19.9v-8.84l-23.81 3.07q-19.72 2.56-19.72 17.79zM355.36 30.72h-1a70.14 70.14 0 0 1-3.2 16l-20 62.21h47l-19.71-61.7a80.24 80.24 0 0 1-3.09-16.51z"/>
      <path class="cls-3" d="M380.45-2h-49L264.6 181.55h44.8l12.93-40.83h50.08l40.13-52.48zm-49.28 111l20-62.21a70.14 70.14 0 0 0 3.2-16h1a80.24 80.24 0 0 0 3.07 16.51l19.71 61.7h-47z"/>
      <path class="cls-4" d="M372.41 140.72h15.21l13.05 40.83h45.06l-33.19-93.31-40.13 52.48zM511.11 47.27a121.46 121.46 0 0 0-26.69 3.33q-14.66 3.33-23.11 7.68v30.44q21.12-14 44.55-14t23.3 21.51L493.57 101q-45.19 5.89-45.19 44 0 18 10.94 28.86t30 10.82q25.85 0 39-22h.51v18.82h38.27v-78.29q.08-55.93-55.99-55.94zm18 81q0 12-7.17 19.9T503.38 156q-8.19 0-13-4.42a14.7 14.7 0 0 1-4.8-11.33q0-15.23 19.71-17.79l23.81-3.07v8.83z"/>
    </g>
  </g>
  <g class="cls-1">
    <path class="cls-2" d="M1017.18 294.92H988v-.2h-4.4v.2h-16.12v-.2h-4.42v.2H947v-.2l-4.62.2h-36.7l-4.22-.2v.2h-16.32l-4.22-.2v.2h-16.1v-.2h-4.42v.2H622.61a8.83 8.83 0 0 0-8.79 8.8v73.8a8.83 8.83 0 0 0 8.83 8.83h394.53a8.83 8.83 0 0 0 8.83-8.83v-73.8a8.83 8.83 0 0 0-8.83-8.8zm-371.24 31.75a14 14 0 1 1-14 14 14 14 0 0 1 14-14z"/>
    <circle class="cls-8" cx="636.46" cy="331.08" r="13.99"/>
    <path class="cls-3" d="M768.58 295.83v-10.48h-16.12v31.56l16.12-21.08zM748 322.72v-37.37h-16.08v26.31a2.21 2.21 0 0 1-4.42 0v-26.31h-16.11v26.31a2.21 2.21 0 0 1-4.42 0v-26.31h-16.15v26.31a2.21 2.21 0 0 1-4.42 0v-26.31h-16.08v39.56a2.21 2.21 0 0 1-4.42 0v-39.56h-52.76a8.83 8.83 0 0 0-8.83 8.83v62.39h117.82zm-111.54 22.34a14 14 0 1 1 14-14 14 14 0 0 1-14 14zM776.6 285.35H773v4.71l3.6-4.71z"/>
    <path class="cls-4" d="M1007.71 285.35h-8.83v39.56a2.21 2.21 0 0 1-4.42 0v-39.56h-15.92v26.11a2.21 2.21 0 1 1-4.42 0v-26.11H958v26.11a2.21 2.21 0 1 1-4.42 0v-26.11h-16.11v26.11a2.56 2.56 0 0 1-2.41 2.41 2.21 2.21 0 0 1-2.21-2.21v-26.31h-16.11v39.56a2.21 2.21 0 0 1-4.42 0v-39.56H896.2v26.31a2.21 2.21 0 0 1-2.21 2.21 2 2 0 0 1-2-2.41v-26.11h-16.32v26.31a2.21 2.21 0 0 1-2.21 2.21 2 2 0 0 1-2-2.41v-26.11h-16.13v26.11a2.21 2.21 0 1 1-4.42 0v-26.11H834.6v39.56a2.21 2.21 0 0 1-4.42 0v-39.56h-16.12v26.31a2.21 2.21 0 0 1-4.42 0v-26.31h-16.11v26.31a2.21 2.21 0 0 1-4.42 0v-26.31H776.6l-3.6 4.71v21.6a2.21 2.21 0 0 1-4.42 0v-15.83l-16.12 21.08v8a2.21 2.21 0 0 1-4.42 0v-2.19l-25.91 33.89h294.41v-62.43a8.83 8.83 0 0 0-8.83-8.83z"/>
    <path class="cls-6" d="M706.66 376.81h301a8.83 8.83 0 0 0 8.83-8.83v-11.41H722.13z"/>
    <path class="cls-4" d="M604.31 356.57V368a8.83 8.83 0 0 0 8.83 8.83h93.52l15.47-20.24H604.31z"/>
    <path class="cls-6" d="M996.67 327.11a2.21 2.21 0 0 0 2.21-2.21v-39.55h-4.42v39.56a2.21 2.21 0 0 0 2.21 2.2z"/>
    <path class="cls-4" d="M974.13 285.15h4.42v.2h-4.42z"/>
    <path class="cls-6" d="M976.33 313.66a2.21 2.21 0 0 0 2.21-2.21v-26.1h-4.42v26.11a2.21 2.21 0 0 0 2.21 2.2z"/>
    <path class="cls-4" d="M953.59 285.15h4.42v.2h-4.42z"/>
    <path class="cls-6" d="M955.82 313.66a2.21 2.21 0 0 0 2.21-2.21v-26.1h-4.42v26.11a2.21 2.21 0 0 0 2.21 2.2z"/>
    <path class="cls-4" d="M937.48 285.15l-4.62.2h4.62v-.2z"/>
    <path class="cls-6" d="M935.07 313.86a2.56 2.56 0 0 0 2.41-2.41v-26.1h-4.66v26.31a2.21 2.21 0 0 0 2.22 2.2zM914.53 327.11a2.21 2.21 0 0 0 2.21-2.21v-39.55h-4.42v39.56a2.21 2.21 0 0 0 2.21 2.2z"/>
    <path class="cls-4" d="M896.21 285.35l-4.22-.2v.2h4.22z"/>
    <path class="cls-6" d="M894 313.86a2.21 2.21 0 0 0 2.21-2.21v-26.3H892v26.11a2 2 0 0 0 2 2.4z"/>
    <path class="cls-4" d="M875.67 285.35l-4.21-.2v.2h4.21z"/>
    <path class="cls-6" d="M873.46 313.86a2.21 2.21 0 0 0 2.21-2.21v-26.3h-4.22v26.11a2 2 0 0 0 2.01 2.4z"/>
    <path class="cls-4" d="M850.92 285.15h4.42v.2h-4.42z"/>
    <path class="cls-6" d="M853.13 313.66a2.21 2.21 0 0 0 2.21-2.21v-26.1h-4.42v26.11a2.21 2.21 0 0 0 2.21 2.2zM832.39 327.11a2.21 2.21 0 0 0 2.21-2.21v-39.55h-4.42v39.56a2.21 2.21 0 0 0 2.21 2.2zM811.82 313.86a2.21 2.21 0 0 0 2.21-2.21v-26.3h-4.42v26.31a2.21 2.21 0 0 0 2.21 2.2zM791.32 313.86a2.21 2.21 0 0 0 2.21-2.21v-26.3h-4.42v26.31a2.21 2.21 0 0 0 2.21 2.2zM768.58 311.65a2.21 2.21 0 0 0 4.42 0V290l-4.42 5.78v15.82z"/>
    <path class="cls-4" d="M773 290.06v-4.71h-4.42v10.48l4.42-5.77z"/>
    <path class="cls-6" d="M748 324.9a2.21 2.21 0 0 0 4.42 0v-8l-4.42 5.82v2.18z"/>
    <path class="cls-4" d="M752.46 316.91v-31.56h-4.41v37.34l4.41-5.78zM729.72 313.86a2.21 2.21 0 0 0 2.21-2.21v-26.3h-4.42v26.31a2.21 2.21 0 0 0 2.21 2.2zM709.18 313.86a2.21 2.21 0 0 0 2.21-2.21v-26.3H707v26.31a2.21 2.21 0 0 0 2.18 2.2zM688.65 313.86a2.21 2.21 0 0 0 2.21-2.21v-26.3h-4.42v26.31a2.21 2.21 0 0 0 2.21 2.2zM668.11 327.11a2.21 2.21 0 0 0 2.21-2.21v-39.55h-4.42v39.56a2.21 2.21 0 0 0 2.21 2.2z"/>
  </g>
  <g class="cls-1">
    <path class="cls-2" d="M49.42 222.84h200.35v59.15H49.42z"/>
    <path class="cls-3" d="M112.46 244.52a20 20 0 0 1-39.84 0H57.93a1.58 1.58 0 0 1-1.58-1.58 1.58 1.58 0 0 1 1.58-1.58h14.69a20 20 0 0 1 39.84 0h12.78l21.41-28H39.94v59.16h61.47l21.41-28h-10.36z"/>
    <path class="cls-4" d="M240.29 213.37h-93.64l-21.41 28h97.06a1.58 1.58 0 0 1 0 3.16h-99.48l-21.41 28h138.88v-59.16z"/>
    <path class="cls-6" d="M222.3 244.52a1.58 1.58 0 0 0 0-3.16h-97.06l-2.42 3.16h99.48z"/>
    <path class="cls-4" d="M112.54 242.94a10.39 10.39 0 0 1-.08 1.58h10.36l2.41-3.16h-12.77c.04.53.08 1.05.08 1.58zM72.62 241.37H57.93a1.58 1.58 0 0 0-1.58 1.58 1.58 1.58 0 0 0 1.58 1.58h14.69c0-.52-.08-1-.08-1.58s.04-1.06.08-1.58z"/>
    <path class="cls-3" d="M107.19 241.37a14.28 14.28 0 1 0 .09 1.58 14.76 14.76 0 0 0-.09-1.58z"/>
    <path class="cls-2" d="M112.46 241.37a20 20 0 0 0-39.84 0c0 .52-.08 1-.08 1.58a10.07 10.07 0 0 0 .08 1.58 20 20 0 0 0 39.84 0c0-.52.08-1 .08-1.58s-.04-1.06-.08-1.58zm-5.18 1.58a14.76 14.76 0 1 1-.09-1.58 14.76 14.76 0 0 1 .09 1.58z"/>
  </g>
  <g class="cls-1">
    <path class="cls-2" d="M615.85 417.73h333.03v57.79H615.85z"/>
    <path class="cls-3" d="M640.45 426.31a8.54 8.54 0 0 0-2.66-1.79 8.35 8.35 0 1 0 4.45 4.45 8.54 8.54 0 0 0-1.79-2.66z"/>
    <path class="cls-3" d="M672.58 445.57v-16.85h45.53l15.65-20.47H606.37V466h83.21l15.65-20.47h-32.65zm-17.17 7.37a1.41 1.41 0 0 1-1.13.52 1.48 1.48 0 0 1-1.07-.45l-11.77-11.76a11.34 11.34 0 0 1-12.64.78 11.61 11.61 0 0 1-4.09-4.09 11.35 11.35 0 0 1 0-11.48 11.61 11.61 0 0 1 4.09-4.09 11.31 11.31 0 0 1 2.72-1.15 11.56 11.56 0 0 1 6 0 11.31 11.31 0 0 1 2.72 1.15 11.61 11.61 0 0 1 4.09 4.09 11.38 11.38 0 0 1 .87 9.62 11.62 11.62 0 0 1-1.66 3l.55.55 1.57 1.54 2 2 2.19 2.18 2.15 2.15q1 1.05 1.84 1.9a18.5 18.5 0 0 1 1.3 1.43 1.39 1.39 0 0 1 .27 2.11z"/>
    <path class="cls-4" d="M939.4 408.25H733.77l-15.65 20.48h92.28v16.84H705.24l-15.66 20.47H939.4v-57.79z"/>
    <path class="cls-2" d="M653.89 449.4q-.8-.85-1.84-1.9l-2.14-2.15-2.19-2.18-2-2-1.57-1.54-.55-.55a11.62 11.62 0 0 0 1.66-3 11.34 11.34 0 0 0-.87-9.62 11.61 11.61 0 0 0-4.09-4.09 11.31 11.31 0 0 0-2.72-1.15 11.56 11.56 0 0 0-6 0 11.31 11.31 0 0 0-2.72 1.15 11.61 11.61 0 0 0-4.09 4.09 11.35 11.35 0 0 0 0 11.48 11.61 11.61 0 0 0 4.09 4.09 11.34 11.34 0 0 0 12.64-.78L653.27 453a1.48 1.48 0 0 0 1.07.45 1.41 1.41 0 0 0 1.13-.52 1.39 1.39 0 0 0 0-2l-.18-.14zm-11.65-13.94a8.35 8.35 0 1 1 0-6.49 8.4 8.4 0 0 1 0 6.49z"/>
    <path class="cls-6" d="M672.59 445.57h32.65l12.88-16.84h-45.53v16.84z"/>
    <path class="cls-7" d="M810.4 445.57v-16.84h-92.28l-12.88 16.84H810.4z"/>
  </g>
  <g class="cls-1">
    <path class="cls-2" d="M903.72 140.8h259.38v122.48H903.72z"/>
    <path class="cls-3" d="M932.23 171.42h19a9.47 9.47 0 0 0 0-18.95h-19a9.47 9.47 0 0 0 0 18.95zm0-15.79a6.32 6.32 0 1 1-6.32 6.32 6.32 6.32 0 0 1 6.32-6.32z"/>
    <path class="cls-3" d="M910.13 194.14a1.58 1.58 0 1 1 0-3.16h98.22l15.77-20.62h-5.8v-16.83H1037l17-22.2H894.25V253.8h66.07l45.62-59.66h-95.81zm22.11-46.94h19a14.74 14.74 0 0 1 0 29.47h-19a14.74 14.74 0 0 1 0-29.46zm19 90.71h-19a14.74 14.74 0 0 1 0-29.47h19a14.74 14.74 0 0 1 0 29.48z"/>
    <path class="cls-4" d="M1153.62 131.33H1054l-17 22.2h93.17v16.84h-106L1008.36 191h129.4a1.58 1.58 0 0 1 0 3.16h-131.83l-45.62 59.66h193.31V131.33zm-23.47 100.28h-111.83v-16.89h111.83v16.89z"/>
    <circle class="cls-2" cx="932.24" cy="161.95" r="6.32"/>
    <path class="cls-2" d="M932.23 176.72h19a14.74 14.74 0 0 0 0-29.47h-19a14.74 14.74 0 0 0 0 29.47zm0-24.21h19a9.48 9.48 0 0 1 0 19h-19a9.5 9.5 0 0 1 0-19zM951.18 208.45h-19a14.74 14.74 0 0 0 0 29.47h19a14.74 14.74 0 0 0 .77-29.47h-.77zm0 22.11a7.37 7.37 0 1 1 7.37-7.37 7.37 7.37 0 0 1-7.37 7.36z"/>
    <path class="cls-4" d="M908.55 192.57a1.58 1.58 0 0 0 1.58 1.58h95.8l2.41-3.16h-98.21a1.58 1.58 0 0 0-1.58 1.58z"/>
    <path class="cls-6" d="M1137.74 194.14a1.58 1.58 0 0 0 0-3.16h-129.4l-2.41 3.16h131.81z"/>
    <path class="cls-7" d="M1130.16 170.37v-16.84h-93.17l-12.88 16.84h106.05z"/>
    <path class="cls-6" d="M1018.33 170.37h5.78l12.88-16.84h-18.66v16.84z"/>
    <path class="cls-7" d="M1018.33 214.76h111.83v16.84h-111.83z"/>
    <circle class="cls-3" cx="951.18" cy="223.19" r="7.37"/>
  </g>
  <g class="cls-1">
    <path class="cls-2" d="M904.35-74.44h376.88V109.4H904.35z"/>
    <path class="cls-4" d="M1271.75-83.91h-138.7l-17 22.22h130.33v16.84h-137.8v-7.05l-21.17 27.69h168.47a1.58 1.58 0 0 1 1.58 1.58 1.58 1.58 0 0 1-1.58 1.58H1085l-44.44 58.11h215.32a1.58 1.58 0 0 1 0 3.16h-217.75l-45.65 59.7h279.27V-83.91zM1246.4 16.42h-137.82V-.42h137.82v16.84zm0 61.28h-137.82V60.86h137.82V77.7z"/>
    <path class="cls-3" d="M910.75 40.22a1.58 1.58 0 0 1-1.58-1.58 1.58 1.58 0 0 1 1.58-1.58h129.8L1085-21.06H910.75a1.58 1.58 0 0 1-1.58-1.58 1.58 1.58 0 0 1 1.58-1.58h176.65l21.17-27.69v-9.79h7.49l17-22.22H894.87V99.92h97.61l45.65-59.7H910.75zm7.37-47h29.51v29.5h-29.51v-29.5zm0-61.28h29.51v29.51h-29.51v-29.51zm0 152.07V54.52h29.51V84h-29.51z"/>
    <path class="cls-3" d="M923.39-1.49h18.99V17.5h-18.99z"/>
    <path class="cls-2" d="M947.64-6.75h-29.52v29.47h29.51V-6.75zm-5.26 24.25h-19v-19h19v19zM918.12 54.52V84h29.51V54.52h-29.51zm11.82 21.8l-6.78-6.79 1.43-1.43 5.35 5.34 11.21-11.2 1.44 1.48z"/>
    <path class="cls-3" d="M929.95 73.44l-5.35-5.34-1.43 1.44 6.78 6.79 12.65-12.66-1.44-1.43-11.21 11.2z"/>
    <path class="cls-6" d="M1255.87 40.22a1.58 1.58 0 0 0 0-3.16h-215.32l-2.41 3.16h217.73z"/>
    <path class="cls-4" d="M909.18 38.64a1.58 1.58 0 0 0 1.58 1.58h127.37l2.41-3.16H910.75a1.58 1.58 0 0 0-1.57 1.58z"/>
    <path class="cls-7" d="M1108.58-.42h137.82v16.84h-137.82zM1108.58 60.86h137.82V77.7h-137.82z"/>
  </g>
  <g class="cls-1">
    <path class="cls-2" d="M-18.71-134.52h259.38v326.16H-18.71z"/>
    <path class="cls-3" d="M68 2.31a11.08 11.08 0 1 0 11.11 11.08A11.09 11.09 0 0 0 68 2.31zm0 16.93a5.86 5.86 0 0 1-5.86-5.86 5.86 5.86 0 0 1 11.72 0A5.86 5.86 0 0 1 68 19.24z"/>
    <path class="cls-4" d="M231.19-61.71l-27.55 36a5.86 5.86 0 0 1 4.12 5.6 5.86 5.86 0 0 1-5.86 5.86A5.85 5.85 0 0 1 197-17l-22.7 29.69a5.92 5.92 0 0 1 0 .63 5.85 5.85 0 0 1-4.94 5.78l-67.84 88.8a5.86 5.86 0 1 1-5.66 7.37l-51.1 66.87h186.43V-61.71zM135 119.64a5.86 5.86 0 1 1 5.85-5.87 5.86 5.86 0 0 1-5.85 5.87zm0-33.47a5.86 5.86 0 1 1 5.85-5.87 5.86 5.86 0 0 1-5.85 5.88zm33.47 33.47a5.86 5.86 0 1 1 5.86-5.86 5.86 5.86 0 0 1-5.86 5.86zm0-33.47a5.86 5.86 0 1 1 5.86-5.86 5.86 5.86 0 0 1-5.86 5.86zm0-33.47a5.86 5.86 0 0 1-5.86-5.86 5.86 5.86 0 0 1 5.83-5.84 5.86 5.86 0 0 1 5.86 5.86 5.86 5.86 0 0 1-5.84 5.88zm33.47 66.93a5.86 5.86 0 1 1 5.86-5.86 5.86 5.86 0 0 1-5.86 5.86zm0-33.47a5.86 5.86 0 1 1 5.86-5.86 5.86 5.86 0 0 1-5.86 5.86zm0-33.47a5.86 5.86 0 0 1-5.86-5.86 5.86 5.86 0 0 1 5.83-5.83 5.86 5.86 0 0 1 5.86 5.86 5.86 5.86 0 0 1-5.83 5.89zm0-33.47a5.86 5.86 0 0 1-5.86-5.86 5.86 5.86 0 0 1 5.86-5.86 5.86 5.86 0 0 1 5.86 5.86 5.86 5.86 0 0 1-5.84 5.88z"/>
    <path class="cls-3" d="M95.64 113.79a5.86 5.86 0 0 1 5.84-5.86l67.87-88.77a5.82 5.82 0 0 1-6.78-5.78 5.86 5.86 0 0 1 5.86-5.86 5.86 5.86 0 0 1 5.83 5.2L197-17a5.82 5.82 0 0 1-.92-3.14 5.86 5.86 0 0 1 5.83-5.86 5.85 5.85 0 0 1 1.74.26l27.55-36V-144H-28.18v326.17h72.9l51.1-66.87a5.85 5.85 0 0 1-.18-1.51zm101.53-224.93l1-1 8.43 8.44-8.41 8.42-1-1 7.41-7.41zM101.5 86.18a5.86 5.86 0 1 1 5.86-5.86 5.86 5.86 0 0 1-5.86 5.86zm0-33.47a5.86 5.86 0 0 1-5.86-5.86A5.86 5.86 0 0 1 101.5 41a5.86 5.86 0 0 1 5.86 5.86 5.86 5.86 0 0 1-5.85 5.87zm0-33.47a5.86 5.86 0 0 1-5.86-5.86 5.86 5.86 0 0 1 5.86-5.86 5.86 5.86 0 0 1 5.86 5.86 5.86 5.86 0 0 1-5.86 5.86zM135 52.72a5.86 5.86 0 0 1-5.86-5.86A5.86 5.86 0 0 1 135 41a5.86 5.86 0 0 1 0 11.72zm0-33.47a5.86 5.86 0 0 1-5.86-5.86A5.86 5.86 0 0 1 135 7.53a5.86 5.86 0 0 1 0 11.71zM55.11-112.16h92.78v16.88H55.11v-16.88zm-50.3 0l1 1-7.41 7.41 7.42 7.47-1 1-8.44-8.44zM1.1 153.11a5.86 5.86 0 0 1-5.86-5.86 5.86 5.86 0 0 1 5.86-5.86 5.86 5.86 0 0 1 5.9 5.86 5.86 5.86 0 0 1-5.86 5.86zm0-33.47a5.86 5.86 0 0 1-5.86-5.86 5.86 5.86 0 0 1 5.86-5.86 5.86 5.86 0 0 1 5.9 5.86 5.86 5.86 0 0 1-5.86 5.86zm0-33.47a5.86 5.86 0 0 1-5.86-5.86 5.86 5.86 0 0 1 5.86-5.86A5.86 5.86 0 0 1 7 80.31a5.86 5.86 0 0 1-5.85 5.87zm0-33.47a5.86 5.86 0 0 1-5.86-5.86A5.86 5.86 0 0 1 1.1 41 5.86 5.86 0 0 1 7 46.84a5.86 5.86 0 0 1-5.84 5.88zm0-33.47a5.86 5.86 0 0 1-5.86-5.86A5.86 5.86 0 0 1 1.1 7.51 5.86 5.86 0 0 1 7 13.37a5.86 5.86 0 0 1-5.85 5.87zm33.47 133.88a5.86 5.86 0 0 1-5.86-5.86 5.86 5.86 0 0 1 5.86-5.86 5.86 5.86 0 0 1 5.86 5.86 5.86 5.86 0 0 1-5.86 5.86zm0-33.47a5.86 5.86 0 0 1-5.86-5.86 5.86 5.86 0 0 1 5.86-5.86 5.86 5.86 0 0 1 5.86 5.86 5.86 5.86 0 0 1-5.86 5.86zm0-33.47a5.86 5.86 0 0 1-5.86-5.86 5.86 5.86 0 0 1 5.86-5.86 5.86 5.86 0 0 1 5.85 5.87 5.86 5.86 0 0 1-5.85 5.86zm0-33.47a5.86 5.86 0 0 1-5.86-5.86A5.86 5.86 0 0 1 34.57 41a5.86 5.86 0 0 1 5.86 5.86 5.86 5.86 0 0 1-5.84 5.88zm0-33.47a5.86 5.86 0 0 1-5.86-5.86 5.86 5.86 0 0 1 5.86-5.86 5.86 5.86 0 0 1 5.86 5.86 5.86 5.86 0 0 1-5.85 5.87zM68 119.64a5.86 5.86 0 1 1 5.86-5.86 5.86 5.86 0 0 1-5.86 5.86zm0-33.47a5.86 5.86 0 1 1 5.86-5.86A5.86 5.86 0 0 1 68 86.18zm0-33.45a5.86 5.86 0 0 1-5.86-5.86 5.86 5.86 0 0 1 11.72 0A5.86 5.86 0 0 1 68 52.72zm0-25.09a14.24 14.24 0 1 1 14.27-14.24A14.25 14.25 0 0 1 68 27.63z"/>
    <circle class="cls-9" cx="1.1" cy="13.39" r="5.86"/>
    <circle class="cls-9" cx="34.57" cy="13.39" r="5.86"/>
    <circle class="cls-6" cx="68.04" cy="13.39" r="5.86"/>
    <circle class="cls-9" cx="101.5" cy="13.39" r="5.86"/>
    <circle class="cls-9" cx="134.97" cy="13.39" r="5.86"/>
    <path class="cls-9" d="M168.43 7.53a5.86 5.86 0 0 0-5.86 5.86 5.86 5.86 0 0 0 5.86 5.86 5.87 5.87 0 0 0 .92-.08l4.9-6.41a5.86 5.86 0 0 0-5.82-5.23z"/>
    <path class="cls-3" d="M174.29 13.39a5.92 5.92 0 0 0 0-.63l-4.9 6.41a5.85 5.85 0 0 0 4.9-5.78z"/>
    <circle class="cls-3" cx="201.9" cy="13.39" r="5.86"/>
    <circle class="cls-9" cx="1.1" cy="46.85" r="5.86"/>
    <circle class="cls-9" cx="34.57" cy="46.85" r="5.86"/>
    <circle class="cls-9" cx="68.04" cy="46.85" r="5.86"/>
    <circle class="cls-9" cx="101.5" cy="46.85" r="5.86"/>
    <circle class="cls-9" cx="134.97" cy="46.85" r="5.86"/>
    <circle class="cls-3" cx="168.44" cy="46.85" r="5.86"/>
    <circle class="cls-3" cx="201.9" cy="46.85" r="5.86"/>
    <circle class="cls-9" cx="1.1" cy="80.32" r="5.86"/>
    <circle class="cls-9" cx="34.57" cy="80.32" r="5.86"/>
    <circle class="cls-9" cx="68.04" cy="80.32" r="5.86"/>
    <circle class="cls-9" cx="101.5" cy="80.32" r="5.86"/>
    <circle class="cls-3" cx="134.97" cy="80.32" r="5.86"/>
    <circle class="cls-3" cx="168.44" cy="80.32" r="5.86"/>
    <circle class="cls-3" cx="201.9" cy="80.32" r="5.86"/>
    <circle class="cls-9" cx="1.1" cy="113.79" r="5.86"/>
    <circle class="cls-9" cx="34.57" cy="113.79" r="5.86"/>
    <circle class="cls-9" cx="68.04" cy="113.79" r="5.86"/>
    <path class="cls-3" d="M101.5 119.64a5.86 5.86 0 0 0 0-11.72l-5.68 7.38a5.85 5.85 0 0 0 5.68 4.34z"/>
    <path class="cls-9" d="M95.64 113.79a5.85 5.85 0 0 0 .2 1.51l5.63-7.37a5.86 5.86 0 0 0-5.83 5.86z"/>
    <circle class="cls-3" cx="134.97" cy="113.79" r="5.86"/>
    <circle class="cls-3" cx="168.44" cy="113.79" r="5.86"/>
    <circle class="cls-3" cx="201.9" cy="113.79" r="5.86"/>
    <circle class="cls-9" cx="1.1" cy="147.25" r="5.86"/>
    <circle class="cls-9" cx="34.57" cy="147.25" r="5.86"/>
    <path class="cls-2" d="M68-.85a14.24 14.24 0 1 0 14.27 14.24A14.25 14.25 0 0 0 68-.85zm0 25.31a11.08 11.08 0 1 1 11.11-11.07A11.09 11.09 0 0 1 68 24.46z"/>
  </g>
  <g class="cls-1">
    <path class="cls-2" d="M280.78 222.84h301.95v405.02H280.78z"/>
    <path class="cls-3" d="M287.18 602.5v-81.4H417.5l12.14-15.88H287.18v-81.4h204.71L504 407.94H287.18v-81.4h270.19v11.65l15.88-20.77v-104h-302v405h71.87l12.14-15.88h-68.08zm0-373.26h270.19v81.4H287.18v-81.4z"/>
    <path class="cls-4" d="M573.25 317.41l-15.88 20.78v69.75h-53.33l-12.15 15.88h65.48v81.4H429.65l-12.14 15.88h139.86v81.41H355.26l-12.14 15.88h230.13V317.41z"/>
    <path class="cls-9" d="M329.31 247a23 23 0 1 0 23 23 23 23 0 0 0-23-23z"/>
    <path class="cls-9" d="M557.37 229.25H287.18v81.4h270.19v-81.4zm-185.94 21.84h161.73v8.42H371.43v-8.42zm-75.34-8.66a4.27 4.27 0 1 1 4.27-4.27 4.27 4.27 0 0 1-4.27 4.27zm33.22 56.83a29.31 29.31 0 1 1 29.31-29.31 29.31 29.31 0 0 1-29.31 29.31zM475 293.72H371.43v-8.42H475v8.42zm59.17-17.09H371.43v-8.42h162.69v8.42z"/>
    <path class="cls-6" d="M371.44 251.09h161.73v8.42H371.44z"/>
    <path class="cls-3" d="M371.44 268.18h162.69v8.42H371.44zM371.44 285.27h103.52v8.42H371.44z"/>
    <circle class="cls-6" cx="296.09" cy="238.16" r="4.27"/>
    <path class="cls-3" d="M534.13 373.88h-4.05l-26.04 34.06h53.33v-69.75l-23.24 30.4v5.29z"/>
    <path class="cls-9" d="M329.31 344.24a23 23 0 1 0 23 23 23 23 0 0 0-23-23z"/>
    <path class="cls-9" d="M287.18 326.53v81.4H504l26-34H371.43v-8.42h162.69v3.13l23.25-30.4v-11.71H287.18zm8.91 13.19a4.27 4.27 0 1 1 4.27-4.27 4.27 4.27 0 0 1-4.27 4.27zm33.22 56.83a29.31 29.31 0 1 1 29.31-29.31 29.31 29.31 0 0 1-29.31 29.3zm145.64-14V391H371.43v-8.42H475zm58.21-25.76H371.43v-8.42h161.73v8.42z"/>
    <path class="cls-6" d="M371.44 348.37h161.73v8.42H371.44z"/>
    <path class="cls-3" d="M534.13 365.46H371.44v8.42h158.64l4.05-5.29v-3.13z"/>
    <path class="cls-6" d="M534.13 368.59l-4.05 5.29h4.05v-5.29z"/>
    <path class="cls-3" d="M371.44 382.55h103.52v8.42H371.44z"/>
    <circle class="cls-6" cx="296.09" cy="335.44" r="4.27"/>
    <path class="cls-9" d="M287.18 505.22h142.47l13-17h-71.22v-8.42H449l6.63-8.67h-84.2v-8.41h90.69l6.63-8.67h-97.32v-8.42h103.76l16.7-21.84H287.18v81.43zm42.13-70A29.31 29.31 0 1 1 300 464.53a29.31 29.31 0 0 1 29.3-29.32zm-33.22-6.76a4.27 4.27 0 1 1-4.27 4.27 4.27 4.27 0 0 1 4.27-4.27z"/>
    <path class="cls-3" d="M533.16 445.66v8.42h-64.4l-6.63 8.67h72v8.42h-78.44l-6.63 8.67h25.89v8.42h-32.33l-12.97 16.96h127.72v-81.4h-65.48l-16.69 21.84h57.96z"/>
    <path class="cls-9" d="M329.31 487.51a23 23 0 1 0-23-23 23 23 0 0 0 23 23z"/>
    <path class="cls-7" d="M533.16 445.66H475.2l-6.44 8.42h64.4v-8.42z"/>
    <path class="cls-6" d="M371.44 445.66v8.42h97.32l6.44-8.42H371.44zM534.13 462.75h-72l-6.44 8.42h78.44v-8.42z"/>
    <path class="cls-3" d="M371.44 462.75v8.42h84.25l6.44-8.42h-90.69zM371.44 479.84v8.42h71.18l6.44-8.42h-77.62z"/>
    <path class="cls-6" d="M474.95 479.84h-25.89l-6.44 8.42h32.33v-8.42z"/>
    <circle class="cls-6" cx="296.09" cy="432.73" r="4.27"/>
    <path class="cls-2" d="M329.31 240.64a29.31 29.31 0 1 0 29.31 29.31 29.31 29.31 0 0 0-29.31-29.31zm0 52.3a23 23 0 1 1 23-23 23 23 0 0 1-23 23zM329.31 337.93a29.31 29.31 0 1 0 29.31 29.31 29.31 29.31 0 0 0-29.31-29.31zm0 52.3a23 23 0 1 1 23-23 23 23 0 0 1-23 23zM329.31 493.83A29.31 29.31 0 1 0 300 464.52a29.31 29.31 0 0 0 29.31 29.31zm0-52.3a23 23 0 1 1-23 23 23 23 0 0 1 23-23z"/>
  </g>
  <g class="cls-1">
    <path class="cls-2" d="M613.78-38.64h259.38v302.56H613.78z"/>
    <path class="cls-3" d="M734.39 16.56a17.81 17.81 0 0 0 17.79-17.83 17.81 17.81 0 0 0-17.79-17.79A17.81 17.81 0 0 0 716.6-1.28a17.81 17.81 0 0 0 17.78 17.84zM752.18 73.05a17.79 17.79 0 1 0-17.79 17.79 17.81 17.81 0 0 0 17.79-17.79zM651.19 90.85a17.79 17.79 0 1 0-17.8-17.8 17.79 17.79 0 0 0 17.8 17.8zM817.59 55.26a17.78 17.78 0 0 0-2.7 35.36l18.93-24.78a17.81 17.81 0 0 0-16.23-10.58z"/>
    <path class="cls-4" d="M835.39 73.05a17.67 17.67 0 0 0-1.57-7.21L814.9 90.62a17.67 17.67 0 0 0 20.49-17.57z"/>
    <path class="cls-4" d="M863.68 26.81l-26.3 34.4a23.06 23.06 0 0 1-26 34l-39.75 52h34.84v8.42h-41.31l-38.08 49.8v25.48H707.6l-17.92 23.43h174V26.81zm-23 204.13h-99v-35.79h99v35.79z"/>
    <path class="cls-3" d="M628.13 230.94v-35.79h99v10.31l38.08-49.8H662.34v-8.42H771.6l39.75-52a23.06 23.06 0 1 1 26-34l26.31-34.4v-74.92H604.31v302.45h85.38l17.92-23.43h-79.48zm149.49-98.43h-86.46v-8.42h86.46v8.42zm-66.29-59.46a23.06 23.06 0 1 1 23.06 23.06 23.06 23.06 0 0 1-23.06-23.06zm23.06-97.33a23.06 23.06 0 0 1 23.06 23 23.06 23.06 0 0 1-23.06 23.06 23.06 23.06 0 0 1-23.06-23.06 23.06 23.06 0 0 1 23.06-23zm-84.78 58.61h83.21v-8.66H736v8.66h83.2v11.82H816v-8.66h-80v8.66h-3.2v-8.66h-80v8.66h-3.16V34.33h-.05zM651.19 50a23.06 23.06 0 1 1-23.06 23.06A23.06 23.06 0 0 1 651.19 50z"/>
    <path class="cls-6" d="M691.16 124.09h86.47v8.42h-86.47zM662.34 155.66h102.83l6.44-8.42H662.34v8.42z"/>
    <path class="cls-7" d="M806.45 155.66v-8.42h-34.84l-6.44 8.42h41.28z"/>
    <path class="cls-4" d="M652.77 37.49h80.04v8.66h3.16v-8.66h80.04v8.66h3.16V34.33h-83.2v-8.66h-3.16v8.66h-83.2v11.82h3.16v-8.66z"/>
    <path class="cls-2" d="M734.39 21.83a23.06 23.06 0 0 0 23.06-23.06v-.05a23.06 23.06 0 0 0-23.06-23 23.06 23.06 0 0 0-23.06 23 23.06 23.06 0 0 0 23 23.11h.05zm0-40.85a17.81 17.81 0 0 1 17.79 17.74 17.81 17.81 0 0 1-17.79 17.79A17.81 17.81 0 0 1 716.6-1.28 17.81 17.81 0 0 1 734.39-19zM757.45 73.05a23.06 23.06 0 1 0-23.06 23.06 23.06 23.06 0 0 0 23.06-23.06zm-40.85 0a17.79 17.79 0 1 1 17.79 17.79 17.81 17.81 0 0 1-17.79-17.79zM651.19 96.11a23.06 23.06 0 1 0-23.06-23.06 23.06 23.06 0 0 0 23.06 23.06zm0-40.85a17.79 17.79 0 1 1-17.8 17.79 17.79 17.79 0 0 1 17.8-17.79z"/>
    <path class="cls-5" d="M835.39 73.05a17.67 17.67 0 0 1-20.49 17.57l-3.54 4.63a23.06 23.06 0 0 0 26-34l-3.54 4.59a17.67 17.67 0 0 1 1.57 7.21z"/>
    <path class="cls-2" d="M817.59 50a23.06 23.06 0 0 0-6.24 45.25l3.54-4.63a17.78 17.78 0 1 1 18.93-24.77l3.54-4.62A23 23 0 0 0 817.59 50zM628.13 195.15v35.79h79.47l19.48-25.48v-10.31h-99zm26.87 22.4v-9h45.26v9H655z"/>
    <path class="cls-5" d="M727.09 230.94v-25.48l-19.49 25.48h19.49z"/>
    <path class="cls-9" d="M654.98 208.54h45.26v9.01h-45.26z"/>
    <path class="cls-3" d="M741.7 230.94h99v-35.79h-99v35.79zm26.84-22.4h45.28v9h-45.28v-9z"/>
    <path class="cls-4" d="M768.54 208.54h45.26v9.01h-45.26z"/>
  </g>
  <g class="cls-1">
    <path class="cls-2" d="M979.42 417.03h259.38v302.49H979.42z"/>
    <path class="cls-3" d="M1016.43 476.59a17.79 17.79 0 1 0 17.79 17.79 17.81 17.81 0 0 0-17.79-17.79z"/>
    <path class="cls-3" d="M1051.53 675.5v-8.42h56.73l6.44-8.42h-63.17v-8.42h69.61l36.42-47.64h-106v-8.42h109.75v3.54l40.19-52.56-1.68-1.64-5 5-1.21-1.21 5-5-5-5 1.21-1.21 5 5 5-5 1.21 1.21-5 5 1.51 1.51 26.78-35.1V407.55H969.94V710h105.47l26.41-34.54h-50.29zm64.7-64.48v8.42h-64.7V611h64.7zm0-47.67h-64.7v-8.42h64.7v8.42zm45.06-16.84h-109.76v-8.42h109.75v8.42zM1051.53 507v-8.4h64.7v8.4h-64.7zm109.75-16.84h-109.75v-8.46h109.75v8.46zm44.72.84l-1.21 1.21-5-5-5 5-1.21-1.21 5-5-5-5 1.25-1.24 5 5 5-5 1.21 1.21-5 5zm-212.94-60.36l212.83-.43v26.19l-212.83.43v-26.19zm23.37 255.29a23.06 23.06 0 1 1 23.06-23.06 23.06 23.06 0 0 1-23.06 23.06zm0-56.06a23.06 23.06 0 1 1 23.06-23.06 23.06 23.06 0 0 1-23.06 23.06zm0-56.09a23.06 23.06 0 1 1 23.06-23.06 23.06 23.06 0 0 1-23.06 23.06zm0-56.34a23.06 23.06 0 1 1 23.06-23.06 23.06 23.06 0 0 1-23.06 23.06z"/>
    <path class="cls-2" d="M1016.43 471.33a23.06 23.06 0 1 0 23.06 23.06 23.06 23.06 0 0 0-23.06-23.06zm0 40.85a17.79 17.79 0 1 1 17.79-17.79 17.81 17.81 0 0 1-17.79 17.79z"/>
    <path class="cls-9" d="M1205.89 430.21l-212.83.43v26.18l212.83-.43v-26.18zm-202.38 22.39h-1.89v-17.74h1.89v17.74zm194.36-.3a.75.75 0 0 1-.61.28.8.8 0 0 1-.57-.24l-6.58-6.57a6.44 6.44 0 0 1-1.7.94 6.37 6.37 0 0 1-3.83.15 6.29 6.29 0 0 1-1.51-.64 6.47 6.47 0 0 1-2.27-2.27 6.32 6.32 0 0 1 3.78-9.28 6.41 6.41 0 0 1 3.36 0 6.29 6.29 0 0 1 1.51.64 6.47 6.47 0 0 1 2.27 2.27 6.32 6.32 0 0 1 .48 5.33 6.44 6.44 0 0 1-.94 1.7l.33.32.88.86 1.12 1.1 1.22 1.21 1.19 1.2 1 1.06c.3.32.54.58.72.8a1 1 0 0 1 .33.55.92.92 0 0 1-.23.59h.05z"/>
    <path class="cls-4" d="M1001.62 434.86h1.89v17.74h-1.89z"/>
  </g>
</svg>
