<svg xmlns="http://www.w3.org/2000/svg" viewBox="0 0 512 512">
  <g fill="#fff">
	<path d="M471.149 405.797V178.111c0-13.515-10.996-24.511-24.511-24.511s-24.511 10.996-24.511 24.511v232.045a54.755 54.755 0 0 0-20.382 22.321H279.421v-80.068c0-13.515-10.996-24.511-24.511-24.511-13.515 0-24.511 10.996-24.511 24.511v80.068H109.167a54.74 54.74 0 0 0-25.831-25.266V285.413h62.638c13.515 0 24.511-10.996 24.511-24.511 0-13.515-10.996-24.511-24.511-24.511H83.336v-114.17a54.977 54.977 0 0 0 25.262-24.178h211.674c13.515 0 24.511-10.996 24.511-24.511 0-13.515-10.996-24.511-24.511-24.511H109.684c-8.988-19.113-28.302-31.591-49.77-31.591-30.334 0-55.013 24.678-55.013 55.013 0 20.698 11.378 39.244 29.413 48.688v287.168C16.28 417.743 4.901 436.29 4.901 456.987 4.902 487.322 29.58 512 59.915 512c20.916 0 40.031-12.049 49.245-30.502h292.592C410.965 499.951 430.08 512 450.995 512c30.334 0 55.013-24.678 55.013-55.013 0-22.796-14.053-43.011-34.859-51.19zM114.467 65.362h205.805c4.506 0 8.17 3.665 8.17 8.17s-3.665 8.17-8.17 8.17H114.131a54.95 54.95 0 0 0 .796-9.26c0-2.375-.156-4.738-.46-7.08zm31.507 187.37c4.506 0 8.17 3.665 8.17 8.17 0 4.506-3.665 8.17-8.17 8.17H75.166a8.169 8.169 0 0 0-8.17 8.17v125.193a54.986 54.986 0 0 0-7.081-.461c-3.124 0-6.215.277-9.26.796V126.659a54.95 54.95 0 0 0 9.26.796c2.376 0 4.739-.157 7.081-.461v117.567a8.169 8.169 0 0 0 8.17 8.17h70.808zM21.242 72.443c0-21.324 17.348-38.672 38.672-38.672 16.499 0 31.193 10.481 36.564 26.08a38.594 38.594 0 0 1 2.108 12.592c0 4.954-.934 9.794-2.777 14.388v.002a38.665 38.665 0 0 1-35.896 24.282c-4.954 0-9.794-.934-14.388-2.777l-.005-.002c-14.748-5.923-24.278-20.009-24.278-35.893zm74.924 398.034l-.001.004c-5.609 15.059-20.176 25.178-36.251 25.178-21.324 0-38.672-17.348-38.672-38.672 0-15.884 9.53-29.971 24.279-35.893l.005-.002a38.468 38.468 0 0 1 14.388-2.777c4.292 0 8.529.709 12.592 2.108 10.984 3.782 19.607 12.192 23.66 23.075 1.607 4.315 2.422 8.853 2.422 13.49s-.815 9.174-2.422 13.489zm300.433-5.32H114.311c.402-2.692.617-5.419.617-8.17s-.215-5.478-.617-8.17H238.57a8.169 8.169 0 0 0 8.17-8.17v-88.238c0-4.506 3.665-8.17 8.17-8.17 4.506 0 8.17 3.665 8.17 8.17v88.238a8.169 8.169 0 0 0 8.17 8.17h125.348c-.402 2.692-.617 5.419-.617 8.17s.216 5.479.618 8.17zm41.869-287.046c0-4.506 3.665-8.17 8.17-8.17 4.506 0 8.17 3.665 8.17 8.17v224.003a54.969 54.969 0 0 0-16.341 1.291V178.111zm12.527 317.549c-16.075 0-30.642-10.119-36.25-25.178l-.001-.004c-1.607-4.315-2.422-8.853-2.422-13.49s.815-9.175 2.422-13.49c3.455-9.281 10.263-16.813 19.169-21.208 5.344-2.637 11.092-3.975 17.081-3.975 3.342 0 6.673.432 9.898 1.283 16.943 4.471 28.774 19.846 28.774 37.389.002 21.325-17.346 38.673-38.671 38.673z"/>
	<path d="M504.705 45.529L461.569 2.392a8.175 8.175 0 0 0-11.557.002L253.664 198.84l-43.19 43.19c-.041.041-.077.088-.118.131a8.702 8.702 0 0 0-.364.403c-.04.048-.082.096-.121.144-.033.04-.061.083-.093.124a8.47 8.47 0 0 0-.431.614c-.028.046-.057.09-.084.136a8.108 8.108 0 0 0-.354.654c-.024.049-.051.097-.074.146-.027.059-.052.119-.077.179-.069.159-.131.32-.188.484-.022.061-.049.118-.07.179l-10.784 32.353-10.125 30.374-12.097 12.097a8.17 8.17 0 1 0 11.556 11.555l11.9-11.9 63.022-21.007c.065-.022.125-.05.188-.074.157-.057.314-.115.467-.183.062-.026.124-.051.184-.08.051-.024.1-.052.151-.076.126-.061.251-.124.375-.193.091-.051.183-.102.272-.157a7.952 7.952 0 0 0 .747-.512c.044-.034.089-.064.132-.099.05-.04.099-.083.148-.125a7.3 7.3 0 0 0 .38-.343c.048-.046.099-.086.147-.133L373.004 188.88c.146-.146.284-.295.416-.449l131.286-131.35a8.168 8.168 0 0 0-.001-11.552zM207.603 299.594l5.617-16.849 6.604-19.811 24.44 24.44-36.661 12.22zm153.832-122.282a8.248 8.248 0 0 0-.414.446L259.388 279.39l-31.581-31.582 37.413-37.414L455.792 19.726l31.582 31.581-125.939 126.005z"/>
  </g>
</svg>