<svg xmlns="http://www.w3.org/2000/svg" viewBox="0 0 390.421 390.421">
  <g fill="#fff">
	<path d="M62.827 88.848c-20.333 0-36.874 16.543-36.874 36.877 0 20.333 16.542 36.874 36.874 36.874 20.335 0 36.878-16.542 36.878-36.874-.001-20.334-16.544-36.877-36.878-36.877zm30.616 24.243c-2.899-2.74-6.712-5.068-11.165-6.817-1.749-4.453-4.077-8.265-6.816-11.165a33.319 33.319 0 0 1 17.981 17.982zm-7.778 16.317a58.814 58.814 0 0 0 0-7.377c5.882 1.056 9.408 2.376 10.278 3.35.002.115.009.229.009.344 0 .09-.006.179-.007.268-.867 1.011-4.393 2.35-10.28 3.415zM63.096 158.84c-.09.001-.179.007-.269.007-.09 0-.178-.006-.268-.007-1.011-.867-2.351-4.392-3.416-10.279a58.847 58.847 0 0 0 7.371 0c-1.067 5.889-2.407 9.413-3.418 10.279zm-.269-13.552a56.57 56.57 0 0 1-4.233-.163c-.432-3.076-.782-6.634-.996-10.641 1.84.059 3.603.086 5.229.086 1.627 0 3.392-.027 5.232-.086-.213 4.007-.564 7.566-.996 10.641-1.389.104-2.8.163-4.236.163zm0-14.107c-1.863 0-3.653-.03-5.372-.084a171.061 171.061 0 0 1 0-10.747 171.061 171.061 0 0 1 10.747 0 171.061 171.061 0 0 1 .001 10.747 171.37 171.37 0 0 1-5.376.084zm-33.114-5.113c-.001-.115-.009-.228-.009-.343 0-.09.006-.179.007-.269.867-1.011 4.393-2.351 10.279-3.417a58.91 58.91 0 0 0 0 7.378c-5.881-1.056-9.407-2.376-10.277-3.349zm13.55-.343c0-1.436.06-2.847.164-4.235 3.076-.432 6.634-.783 10.642-.996-.059 1.84-.086 3.604-.086 5.231 0 1.626.027 3.39.086 5.229-4.007-.213-7.565-.563-10.641-.992a56.118 56.118 0 0 1-.165-4.237zm19.22-33.116c.115-.001.229-.009.344-.009.09 0 .179.006.27.007 1.011.867 2.351 4.393 3.416 10.28a58.887 58.887 0 0 0-7.377 0c1.055-5.882 2.374-9.408 3.347-10.278zm.344 13.551c1.436 0 2.848.06 4.236.164.432 3.075.782 6.633.995 10.64-1.84-.059-3.604-.086-5.231-.086-1.627 0-3.39.027-5.229.086.213-4.007.563-7.564.992-10.64 1.388-.105 2.8-.164 4.237-.164zm8.761 14.333c4.007.213 7.565.563 10.64.992.104 1.39.164 2.803.164 4.24 0 1.435-.06 2.846-.164 4.233-3.075.432-6.633.782-10.64.996.059-1.839.086-3.603.086-5.229a161.47 161.47 0 0 0-.086-5.232zm13.746-1.972a53.067 53.067 0 0 0-1.632-8.026c5.644 2.675 9.772 6.407 11.512 10.68-2.54-1.142-6.008-2.01-9.88-2.654zm-3.477-.512c-3.406-.436-6.981-.727-10.41-.904-.177-3.429-.468-7.003-.904-10.41 3.26.456 6.335 1.193 9.146 2.167.974 2.813 1.712 5.887 2.168 9.147zm-11.825-14.791c-.645-3.872-1.512-7.339-2.654-9.88 4.273 1.74 8.005 5.869 10.68 11.512a52.994 52.994 0 0 0-8.026-1.632zm-11.754-9.881c-1.142 2.541-2.009 6.009-2.653 9.881a53.016 53.016 0 0 0-8.026 1.632c2.674-5.645 6.405-9.773 10.679-11.513zm-3.165 13.358c-.436 3.407-.727 6.981-.904 10.41-3.429.178-7.004.468-10.411.904.456-3.26 1.193-6.334 2.167-9.146 2.813-.975 5.888-1.712 9.148-2.168zm-14.792 11.826c-3.871.645-7.339 1.512-9.879 2.653 1.74-4.272 5.868-8.004 11.511-10.679a52.944 52.944 0 0 0-1.632 8.026zm0 14.406c.35 2.804.905 5.49 1.631 8.026-5.644-2.675-9.771-6.407-11.511-10.679 2.541 1.141 6.008 2.009 9.88 2.653zm3.477.511c3.406.437 6.981.727 10.41.904.178 3.429.468 7.004.904 10.411-3.26-.457-6.335-1.193-9.147-2.168-.974-2.812-1.711-5.887-2.167-9.147zm11.827 14.792c.645 3.872 1.512 7.339 2.653 9.88-4.274-1.74-8.005-5.868-10.68-11.511a52.908 52.908 0 0 0 8.027 1.631zm11.752 9.88c1.142-2.541 2.01-6.008 2.654-9.879a53.028 53.028 0 0 0 8.025-1.632c-2.674 5.643-6.406 9.771-10.679 11.511zm3.166-13.357c.436-3.407.727-6.982.904-10.411 3.429-.178 7.003-.468 10.41-.904-.456 3.26-1.193 6.336-2.167 9.148-2.813.974-5.887 1.71-9.147 2.167zm14.791-11.826c3.872-.645 7.34-1.512 9.881-2.653-1.74 4.272-5.868 8.004-11.513 10.679a52.822 52.822 0 0 0 1.632-8.026zM50.193 95.11c-2.739 2.899-5.067 6.712-6.816 11.165-4.452 1.749-8.264 4.077-11.164 6.816a33.312 33.312 0 0 1 17.98-17.981zm-17.98 43.248c2.899 2.74 6.712 5.067 11.164 6.816 1.749 4.452 4.076 8.264 6.815 11.163a33.307 33.307 0 0 1-17.979-17.979zm43.249 17.979c2.74-2.899 5.067-6.711 6.816-11.163 4.453-1.749 8.266-4.077 11.165-6.816a33.31 33.31 0 0 1-17.981 17.979z"/>
	<path d="M377.604 323.542h-2.799V192.295a7.217 7.217 0 0 0-7.217-7.217H321.21v-65.934c0-19.299-15.701-35-35-35H125.656V48.322a7.076 7.076 0 0 0-7.076-7.075H7.076A7.075 7.075 0 0 0 0 48.322v154.805a7.075 7.075 0 0 0 7.076 7.075H69.21v37.074c0 19.299 15.701 35 35 35H156v41.267h-2.799c-7.079 0-12.817 5.738-12.817 12.816s5.739 12.816 12.817 12.816h224.403c7.079 0 12.817-5.738 12.817-12.816s-5.738-12.817-12.817-12.817zM12.565 53.812H113.09v131.404H12.565V53.812zM156 192.295v69.98h-51.79c-8.271 0-15-6.729-15-15v-37.074h29.37a7.075 7.075 0 0 0 7.076-7.075v-98.981H286.21c8.271 0 15 6.729 15 15v65.934H163.217a7.216 7.216 0 0 0-7.217 7.216zm116.168 147.784h-13.531a3.721 3.721 0 0 1 0-7.443h13.531a3.72 3.72 0 0 1 3.72 3.721 3.72 3.72 0 0 1-3.72 3.722zm88.655-13.1H169.98v-127.92h190.843v127.92z"/>
	<path d="M265.401 307.4c26.399 0 47.877-21.477 47.877-47.875 0-26.399-21.478-47.876-47.877-47.876-26.398 0-47.875 21.477-47.875 47.876 0 26.398 21.477 47.875 47.875 47.875zm-39.745-31.472c3.764 3.557 8.713 6.579 14.494 8.849 2.27 5.781 5.292 10.73 8.849 14.494a43.242 43.242 0 0 1-23.343-23.343zm10.096-21.187a76.2 76.2 0 0 0 0 9.566c-7.644-1.384-12.22-3.122-13.345-4.435-.001-.116-.009-.231-.009-.347 0-.117.008-.232.009-.348 1.125-1.313 5.7-3.052 13.345-4.436zm29.302-38.212c.116-.001.23-.009.347-.009s.232.008.348.009c1.313 1.125 3.053 5.701 4.437 13.346a76.232 76.232 0 0 0-9.568 0c1.383-7.645 3.123-12.22 4.436-13.346zm.347 17.595c1.864 0 3.697.078 5.499.212.561 3.993 1.016 8.613 1.293 13.815-2.39-.076-4.68-.112-6.792-.112s-4.401.036-6.79.112c.277-5.203.732-9.822 1.293-13.815a74.056 74.056 0 0 1 5.497-.212zm0 18.315c2.42 0 4.745.039 6.978.109a222.57 222.57 0 0 1 0 13.952 222.684 222.684 0 0 1-13.955 0 222.44 222.44 0 0 1 0-13.952 222.62 222.62 0 0 1 6.977-.109zm42.997 6.738c.001.116.009.231.009.348 0 .116-.008.231-.009.347-1.126 1.313-5.702 3.051-13.346 4.435a76.136 76.136 0 0 0 0-9.566c7.645 1.384 12.221 3.123 13.346 4.436zm-17.594.348c0 1.863-.078 3.694-.212 5.496-3.993.56-8.612 1.016-13.815 1.293.076-2.388.112-4.677.112-6.788 0-2.112-.036-4.401-.112-6.791 5.203.277 9.822.732 13.815 1.293.134 1.801.212 3.634.212 5.497zM265.75 302.52c-.117.001-.232.009-.348.009s-.231-.008-.347-.009c-1.313-1.126-3.052-5.701-4.436-13.345a76.192 76.192 0 0 0 9.568 0c-1.384 7.645-3.124 12.22-4.437 13.345zm-.349-17.594c-1.863 0-3.695-.078-5.497-.212-.561-3.994-1.016-8.614-1.293-13.817 2.389.076 4.679.112 6.79.112 2.112 0 4.403-.036 6.792-.112-.277 5.204-.732 9.824-1.293 13.817a74.09 74.09 0 0 1-5.499.212zm-11.373-18.613c-5.203-.277-9.822-.732-13.815-1.293a73.47 73.47 0 0 1-.212-5.496c0-1.863.078-3.695.212-5.498 3.993-.561 8.612-1.016 13.815-1.293a215.105 215.105 0 0 0-.112 6.791c.001 2.112.036 4.401.112 6.789zm-17.847 2.562a68.817 68.817 0 0 0 2.119 10.422c-7.328-3.473-12.688-8.319-14.946-13.867 3.299 1.483 7.801 2.609 12.827 3.445zm4.515.664c4.423.566 9.064.943 13.516 1.174.23 4.453.608 9.095 1.175 13.518-4.232-.592-8.225-1.549-11.876-2.814-1.266-3.652-2.223-7.645-2.815-11.878zm15.354 19.207c.837 5.026 1.962 9.527 3.445 12.826-5.547-2.259-10.392-7.618-13.865-14.945a69.01 69.01 0 0 0 10.42 2.119zm15.259 12.826c1.483-3.299 2.608-7.801 3.445-12.827a68.74 68.74 0 0 0 10.42-2.119c-3.472 7.328-8.318 12.687-13.865 14.946zm4.109-17.342c.566-4.423.944-9.065 1.175-13.517 4.451-.23 9.093-.608 13.516-1.174-.593 4.233-1.55 8.227-2.814 11.878-3.652 1.264-7.644 2.221-11.877 2.813zm19.206-15.355c5.026-.837 9.528-1.962 12.827-3.445-2.258 5.548-7.618 10.394-14.946 13.867a69.062 69.062 0 0 0 2.119-10.422zm0-18.702a68.888 68.888 0 0 0-2.119-10.42c7.328 3.473 12.688 8.318 14.945 13.866-3.299-1.483-7.801-2.609-12.826-3.446zm-4.516-.664c-4.422-.566-9.064-.943-13.516-1.174-.23-4.452-.608-9.093-1.174-13.516 4.232.592 8.225 1.549 11.876 2.814 1.265 3.652 2.222 7.644 2.814 11.876zm-15.354-19.204c-.837-5.026-1.963-9.529-3.445-12.828 5.548 2.259 10.393 7.619 13.866 14.946a68.876 68.876 0 0 0-10.421-2.118zm-15.259-12.828c-1.482 3.299-2.608 7.801-3.445 12.828a68.765 68.765 0 0 0-10.42 2.119c3.472-7.328 8.317-12.688 13.865-14.947zm-4.109 17.342c-.566 4.423-.944 9.064-1.174 13.516-4.452.23-9.093.607-13.516 1.174.592-4.232 1.549-8.225 2.814-11.876 3.651-1.264 7.643-2.221 11.876-2.814zm-19.205 15.354c-5.026.837-9.528 1.963-12.827 3.445 2.259-5.548 7.619-10.393 14.946-13.866a68.926 68.926 0 0 0-2.119 10.421zm45.625 49.097c3.557-3.764 6.578-8.713 8.849-14.493 5.781-2.271 10.73-5.292 14.494-8.849a43.246 43.246 0 0 1-23.343 23.342zm23.343-56.148c-3.764-3.557-8.713-6.579-14.494-8.85-2.27-5.781-5.292-10.73-8.849-14.494a43.253 43.253 0 0 1 23.343 23.344zm-56.15-23.344c-3.557 3.764-6.579 8.713-8.849 14.495-5.781 2.27-10.73 5.292-14.494 8.849a43.24 43.24 0 0 1 23.343-23.344z"/>
  </g>
</svg>
